<?xml version="1.0" standalone="no"?>
<!DOCTYPE svg PUBLIC "-//W3C//DTD SVG 20010904//EN"
 "http://www.w3.org/TR/2001/REC-SVG-20010904/DTD/svg10.dtd">
<svg version="1.0" xmlns="http://www.w3.org/2000/svg"
 width="512.000000pt" height="512.000000pt" viewBox="0 0 512.000000 512.000000"
 preserveAspectRatio="xMidYMid meet">
<metadata>
Created by potrace 1.14, written by Peter Selinger 2001-2017
</metadata>
<g transform="translate(0.000000,512.000000) scale(0.100000,-0.100000)"
fill="#000000" stroke="none">
<path d="M1815 4447 c-31 -48 24 -114 73 -88 31 17 37 49 15 80 -27 36 -67 39
-88 8z m65 -12 c19 -23 8 -50 -20 -50 -19 0 -26 6 -28 24 -5 35 26 53 48 26z"/>
<path d="M2105 4418 c-402 -235 -1048 -408 -1527 -408 -54 0 -98 -2 -98 -5 0
-2 9 -27 20 -54 61 -155 65 -373 12 -581 -23 -91 -76 -238 -128 -357 -7 -15
28 -20 171 -28 61 -3 254 -14 430 -25 176 -11 367 -23 425 -26 58 -4 109 -10
114 -15 8 -7 -7 -466 -20 -589 -14 -136 -47 -337 -69 -418 -50 -186 -107 -258
-249 -313 -230 -89 -501 -78 -720 30 -177 87 -306 220 -401 414 l-45 92 0 -55
c0 -96 35 -234 85 -337 124 -254 358 -373 734 -373 455 0 701 164 831 554 47
140 74 276 106 541 22 176 25 234 20 360 -6 159 -24 276 -49 338 l-16 37 -113
0 c-172 0 -611 10 -724 16 l-100 6 13 86 c16 107 17 333 2 402 -6 28 -9 53 -7
54 1 2 89 9 193 15 336 21 621 57 855 107 215 47 400 105 400 127 0 7 -6 50
-14 97 -8 47 -22 139 -32 205 -9 66 -20 125 -23 132 -4 8 -28 -1 -76 -29z"/>
<path d="M2211 4388 c31 -192 52 -338 53 -367 1 -33 -2 -36 -49 -54 -285 -107
-660 -168 -1308 -213 -77 -5 -88 -8 -81 -22 13 -33 16 -280 5 -382 -10 -84
-10 -104 1 -111 7 -5 16 -5 20 -1 22 22 31 344 13 443 l-7 36 138 7 c500 26
975 104 1248 207 l58 21 -6 67 c-4 36 -19 145 -34 241 -22 138 -31 175 -43
178 -14 3 -15 -4 -8 -50z"/>
<path d="M1670 4395 c0 -11 11 -15 40 -15 47 0 52 -17 10 -33 -41 -15 -33 -30
21 -39 60 -11 82 -4 41 12 -24 9 -30 16 -23 23 19 19 12 47 -15 57 -38 15 -74
12 -74 -5z"/>
<path d="M1562 4354 c-26 -18 -28 -50 -6 -82 17 -24 62 -30 82 -10 19 19 14
66 -8 88 -24 24 -38 25 -68 4z m63 -35 c13 -41 -44 -63 -59 -23 -9 23 5 44 29
44 15 0 26 -8 30 -21z"/>
<path d="M1410 4306 c0 -12 9 -16 34 -16 49 0 54 -18 10 -36 -43 -18 -37 -27
28 -43 57 -13 58 -13 58 -2 0 5 -14 12 -31 16 -28 6 -29 8 -15 24 30 33 15 55
-46 66 -31 6 -38 4 -38 -9z"/>
<path d="M1172 4244 c-15 -10 -22 -25 -22 -48 0 -39 15 -56 52 -56 57 0 72 81
19 109 -25 14 -22 14 -49 -5z m53 -49 c0 -23 -5 -31 -22 -33 -17 -3 -24 3 -29
22 -8 32 3 48 29 44 17 -2 22 -10 22 -33z"/>
<path d="M1328 4248 c-50 -13 -50 -33 -1 -23 44 8 53 13 53 26 0 10 -2 10 -52
-3z"/>
<path d="M1035 4215 c-38 -37 -28 -96 10 -65 19 16 45 6 45 -18 0 -21 9 -34
20 -27 8 5 -11 103 -23 123 -12 18 -25 15 -52 -13z m45 -19 c0 -13 -39 -30
-48 -21 -8 7 20 35 34 35 8 0 14 -6 14 -14z"/>
<path d="M860 4195 c0 -3 20 -14 44 -25 48 -20 61 -34 50 -52 -5 -7 -10 -4
-16 11 -12 33 -63 26 -63 -8 0 -13 6 -26 13 -29 8 -2 12 2 10 10 -2 7 1 13 7
13 5 0 10 -6 12 -13 3 -24 12 -25 38 -8 43 28 28 66 -38 94 -29 13 -57 16 -57
7z"/>
<path d="M730 4181 c0 -5 8 -12 18 -15 11 -4 29 -18 42 -31 22 -24 23 -26 7
-42 -16 -16 -18 -16 -34 0 -17 17 -17 18 0 11 12 -4 17 -1 17 11 0 11 -7 15
-22 13 -35 -5 -31 -50 5 -62 37 -13 73 19 63 57 -9 35 -96 88 -96 58z"/>
<path d="M3399 4044 c-41 -88 -48 -110 -26 -80 11 15 28 18 108 18 52 -1 99
-1 106 -1 7 -1 10 -8 6 -18 -3 -10 8 0 25 22 28 35 40 65 28 65 -3 0 -50 18
-106 40 l-102 39 -39 -85z"/>
<path d="M3047 4046 c-3 -7 -8 -33 -12 -57 l-7 -44 106 3 c99 3 106 2 100 -15
-3 -10 4 -1 16 21 12 21 18 42 13 46 -8 8 -184 60 -201 60 -6 0 -12 -6 -15
-14z"/>
<path d="M2578 3993 c-34 -4 -38 -7 -38 -31 0 -26 20 -70 20 -45 0 7 19 11 55
10 l55 -2 0 38 c0 41 3 40 -92 30z"/>
<path d="M2750 3873 c0 -30 3 -43 9 -35 6 10 27 13 74 10 65 -3 66 -3 71 26 3
16 6 32 6 37 0 5 -36 9 -80 9 l-80 0 0 -47z"/>
<path d="M2383 3888 c-71 -10 -72 -10 -61 -34 8 -17 15 -21 23 -14 7 6 38 7
74 3 l63 -6 -4 28 c-4 34 -5 35 -95 23z"/>
<path d="M3529 3678 c-24 -35 -37 -58 -29 -52 8 5 44 11 80 13 36 1 72 4 81 7
9 3 24 -2 32 -11 9 -8 18 -11 21 -7 4 7 -123 112 -136 112 -3 0 -25 -28 -49
-62z"/>
<path d="M3874 3633 c-45 -43 -71 -70 -60 -61 15 12 45 17 108 20 47 2 84 0
81 -4 -2 -5 3 -8 11 -8 9 0 16 4 16 10 0 12 29 2 55 -19 11 -9 -11 19 -49 62
-38 42 -71 77 -75 77 -4 0 -43 -35 -87 -77z"/>
<path d="M4332 3555 c-61 -41 -112 -78 -112 -80 0 -3 11 2 25 11 17 11 25 12
25 5 0 -7 5 -9 10 -6 6 4 7 12 3 18 -4 7 2 5 12 -3 14 -11 19 -12 22 -2 5 13
33 17 33 5 0 -5 44 -7 98 -7 85 1 100 -1 122 -20 29 -25 23 -16 -54 82 -31 39
-60 72 -64 72 -4 0 -58 -34 -120 -75z"/>
<path d="M2914 3141 c-33 -25 -69 -51 -80 -58 -16 -10 -17 -13 -4 -22 25 -17
58 -12 103 15 46 29 97 73 97 85 0 4 -12 11 -27 16 -25 8 -36 4 -89 -36z"/>
<path d="M1782 3108 c43 -171 45 -409 4 -721 -56 -431 -140 -659 -300 -820
-159 -159 -373 -225 -695 -214 -198 6 -283 25 -416 92 -64 32 -81 38 -60 20
46 -37 162 -92 245 -115 239 -66 590 -42 780 54 139 70 246 174 313 303 74
144 116 293 162 576 l6 37 59 0 c33 0 60 -2 60 -5 0 -3 -9 -19 -21 -34 -32
-43 -36 -109 -10 -143 40 -50 115 -55 164 -11 24 22 28 14 11 -25 -25 -61
-126 -88 -214 -57 -51 18 -50 18 -50 4 0 -5 21 -19 47 -31 89 -39 241 -19 277
37 9 14 16 43 16 65 0 47 -30 85 -76 96 -23 6 -32 1 -61 -35 -19 -22 -41 -41
-49 -41 -25 0 -16 62 16 113 l29 46 43 -24 c24 -14 65 -28 91 -31 44 -6 48 -9
42 -28 -4 -12 -9 -51 -12 -87 -4 -54 -1 -73 16 -107 20 -40 82 -92 108 -92 21
0 15 16 -11 33 -13 9 -30 33 -36 53 -16 48 -8 148 16 197 18 38 18 39 0 53
-15 10 -37 12 -88 7 -57 -5 -71 -3 -88 12 -11 10 -20 22 -20 27 0 4 62 8 138
8 l139 0 38 -33 c47 -40 43 -61 -21 -113 -55 -45 -57 -71 -9 -113 52 -46 116
-75 207 -95 l28 -6 2 177 3 178 143 3 c126 2 143 1 149 -14 7 -19 -14 -62 -38
-77 -12 -7 -33 0 -85 32 -39 22 -76 41 -82 41 -7 0 -12 -16 -12 -40 0 -29 -4
-40 -15 -40 -17 0 -20 -16 -5 -25 7 -4 6 -13 -1 -27 -9 -18 -8 -24 7 -35 10
-7 26 -13 36 -13 21 0 48 48 48 85 0 30 20 33 45 5 11 -12 15 -28 12 -41 -6
-24 8 -70 26 -81 7 -4 20 -8 30 -8 14 0 17 9 17 45 0 38 3 45 20 45 26 0 52
-42 48 -76 -5 -44 -49 -69 -121 -69 -34 0 -73 2 -86 5 -41 9 -36 -18 6 -29
158 -42 273 -6 273 85 0 29 -8 44 -40 76 -38 38 -39 41 -24 64 16 23 15 37 -1
77 -6 15 -1 17 49 17 l56 0 0 -210 c0 -197 1 -210 19 -220 51 -27 51 -26 51
210 l0 220 26 0 c30 0 23 17 -12 30 -20 8 -24 16 -24 55 0 118 -115 208 -265
208 -108 0 -185 -40 -185 -95 0 -67 86 -104 218 -94 75 6 82 5 82 -12 0 -10
-10 -28 -23 -40 l-23 -22 -545 0 c-300 0 -548 2 -550 5 -3 2 1 55 9 117 17
149 10 497 -12 586 -17 67 -41 122 -54 122 -5 0 0 -33 10 -72z m1196 -546 c53
-24 75 -65 76 -140 1 -47 -3 -66 -13 -70 -10 -3 -12 1 -8 18 16 62 -57 95
-184 85 -73 -6 -88 -4 -102 10 -10 9 -17 23 -17 30 0 29 46 65 100 79 59 15
96 12 148 -12z m-448 -402 l0 -160 -37 15 c-53 22 -88 49 -91 71 -2 12 16 37
48 69 27 27 50 57 50 66 0 16 -31 51 -75 83 -18 14 -15 15 43 16 l62 0 0 -160z"/>
<path d="M4105 3049 c-38 -17 -71 -31 -72 -33 -2 -1 32 -2 74 -1 43 1 84 -3
91 -9 11 -7 10 0 -2 29 -9 21 -18 40 -19 41 -1 1 -33 -11 -72 -27z"/>
<path d="M2940 3005 l0 -34 -42 19 c-25 11 -65 20 -96 20 -46 0 -58 -4 -83
-29 -23 -23 -29 -38 -29 -71 0 -52 13 -76 50 -95 36 -19 109 -19 133 -1 13 10
16 21 11 42 -9 40 -22 54 -50 54 -20 0 -24 -5 -24 -29 0 -31 -22 -57 -40 -46
-5 3 -10 24 -10 46 0 31 7 47 29 70 33 32 65 37 99 13 41 -29 52 -66 52 -178
0 -94 2 -106 19 -116 49 -26 51 -21 51 150 l0 160 25 0 c37 0 31 15 -15 39
-61 32 -80 28 -80 -14z"/>
<path d="M2135 3010 c-171 -5 -187 -6 -157 -19 19 -8 32 -20 32 -31 0 -10 16
-40 36 -66 51 -66 67 -109 53 -135 -9 -18 -18 -20 -60 -17 -29 2 -48 -1 -46
-7 6 -16 97 -37 132 -31 47 9 67 37 74 103 l6 58 20 -30 c15 -22 21 -50 24
-112 l3 -83 -60 0 c-64 0 -112 -25 -112 -58 0 -31 37 -78 75 -96 63 -30 142
-2 161 56 6 19 7 19 31 -4 14 -12 33 -39 44 -59 15 -31 41 -48 72 -49 32 0
-45 108 -106 150 l-37 25 0 188 0 187 120 0 c66 0 120 -2 120 -4 0 -3 -27 -21
-60 -41 -33 -20 -76 -51 -95 -69 -61 -58 -42 -123 50 -169 33 -16 123 -37 160
-37 l25 0 0 160 0 160 25 0 c31 0 33 18 3 25 -37 7 -327 10 -533 5z m115 -80
c0 -27 -2 -50 -4 -50 -2 0 -24 11 -47 25 -58 33 -69 32 -69 -6 0 -26 -3 -29
-14 -20 -20 17 -39 68 -32 86 4 12 23 15 86 15 l80 0 0 -50z m320 -136 l0
-106 -37 7 c-77 14 -111 62 -82 114 15 26 93 91 110 91 5 0 9 -48 9 -106z
m-320 -203 c0 -24 -47 -81 -66 -81 -13 0 -34 30 -34 49 0 22 41 51 70 51 23 0
30 -5 30 -19z"/>
<path d="M395 2969 c-4 -6 -3 -14 1 -18 5 -5 137 -16 294 -25 157 -9 317 -19
355 -22 436 -28 465 -29 465 -10 0 11 -23 16 -92 20 -157 11 -553 35 -758 46
-107 6 -209 13 -227 16 -18 2 -34 0 -38 -7z"/>
<path d="M4531 2884 c-68 -18 -126 -36 -130 -40 -3 -4 3 -4 14 1 37 14 256 17
273 3 13 -11 15 -10 9 5 -4 11 -10 30 -13 43 -7 29 -1 30 -153 -12z"/>
<path d="M446 2788 c-4 -57 -9 -130 -11 -163 -41 -504 -43 -617 -15 -708 39
-127 149 -237 283 -284 81 -28 283 -25 357 5 112 45 210 144 251 252 24 64 32
134 59 525 11 160 23 317 26 351 l6 60 -254 18 c-139 10 -338 24 -443 32 -104
7 -204 14 -221 14 l-31 0 -7 -102z m242 15 c7 -11 25 -17 53 -19 24 -1 43 -5
42 -8 -2 -3 -3 -22 -3 -41 0 -19 -4 -35 -9 -35 -6 0 -7 16 -4 37 4 26 3 34 -5
29 -7 -4 -12 -22 -13 -39 -1 -24 -3 -27 -7 -12 -4 11 -17 21 -30 23 -19 2 -22
-1 -17 -19 6 -18 5 -19 -14 -7 -13 8 -21 24 -22 43 -1 29 -1 29 -14 -10 -14
-39 -14 -39 -11 -7 1 17 -1 32 -6 32 -4 0 -8 -15 -9 -32 0 -18 -3 -27 -6 -20
-2 6 -10 12 -17 12 -7 0 -13 13 -13 30 0 25 4 30 24 30 13 0 26 7 29 15 8 20
41 19 52 -2z m540 -52 c71 -1 78 -7 71 -56 -3 -22 -7 -34 -8 -27 0 6 -8 12
-17 12 -11 0 -13 6 -9 19 3 11 1 22 -5 26 -6 4 -10 -6 -10 -24 0 -17 -4 -31
-10 -31 -5 0 -7 13 -4 29 4 16 1 32 -5 35 -7 5 -11 -6 -11 -34 l0 -40 -25 16
c-23 15 -38 53 -15 39 6 -3 7 1 4 9 -11 28 -24 17 -24 -19 0 -23 -5 -35 -14
-35 -18 0 -26 22 -19 49 4 16 1 21 -13 21 -14 0 -15 -3 -6 -12 7 -7 8 -17 1
-30 -16 -29 -27 -21 -31 22 -3 38 -2 40 24 40 22 0 26 4 21 17 -6 14 -2 14 23
-4 20 -14 46 -21 82 -22z m-228 12 c30 -3 49 -8 42 -10 -6 -3 -10 -8 -7 -12 2
-4 1 -19 -3 -33 -6 -21 -11 -24 -29 -17 -16 6 -23 17 -24 36 -2 22 -3 20 -9
-12 -6 -32 -7 -35 -9 -12 l-1 28 -29 -20 c-39 -28 -41 -27 -41 14 0 19 -5 35
-11 35 -5 0 -7 -5 -3 -11 3 -6 1 -22 -6 -34 l-13 -24 -20 25 c-17 22 -18 27
-6 35 10 6 10 9 2 9 -7 0 -13 4 -13 10 0 9 46 8 180 -7z m-75 -103 c160 -11
308 -23 330 -25 l40 -5 -13 -203 c-7 -111 -17 -212 -22 -224 -12 -28 -63 -42
-106 -29 -32 10 -33 11 -13 29 10 10 19 19 19 21 0 1 7 54 15 116 8 63 11 118
7 122 -5 5 -51 -5 -102 -21 -148 -48 -143 -48 -275 3 -65 26 -119 45 -121 43
-4 -4 -24 -166 -24 -195 0 -12 12 -34 26 -49 14 -14 23 -27 21 -30 -7 -6 -73
23 -82 36 -6 11 12 372 20 379 4 4 578 -38 583 -43 2 -2 -2 -83 -9 -181 -11
-164 -14 -180 -35 -201 -33 -33 -10 -29 25 5 29 26 30 32 41 155 5 70 10 155
10 187 l0 59 -42 5 c-66 8 -611 46 -615 43 -9 -10 -30 -363 -22 -384 5 -13 25
-33 44 -44 43 -26 41 -32 -7 -19 -70 20 -70 21 -53 255 8 114 15 209 15 211 0
7 49 4 345 -16z m-1 -280 c11 0 46 7 76 15 30 8 55 13 56 12 1 -1 5 -40 9 -87
l6 -85 -56 -36 -57 -36 89 -7 c48 -4 117 -9 152 -13 l64 -6 -6 -84 c-3 -47
-11 -91 -17 -97 -7 -9 -56 -15 -147 -19 -76 -3 -153 -11 -172 -18 -27 -10 -39
-9 -66 4 -29 14 -166 46 -266 62 -21 3 -41 11 -46 18 -6 7 -7 49 -4 97 l6 85
40 0 c22 0 91 -4 153 -8 l113 -8 -48 43 c-26 23 -50 44 -52 45 -3 2 23 123 35
161 2 9 19 5 60 -13 31 -14 66 -25 78 -25z m-201 -435 c49 -8 106 -22 127 -32
32 -16 43 -17 72 -7 37 13 288 24 288 13 0 -14 -39 -21 -160 -26 -69 -3 -134
-9 -145 -13 -11 -4 -31 -2 -46 6 -14 7 -68 20 -120 28 -52 9 -111 20 -131 26
-47 14 -52 35 -5 26 17 -4 72 -14 120 -21z m-2 -49 c61 -9 111 -22 130 -34 28
-17 36 -18 63 -7 34 14 296 26 296 14 0 -13 -32 -19 -145 -23 -61 -3 -129 -8
-151 -11 -23 -4 -50 -3 -60 3 -11 6 -73 20 -138 31 -65 12 -127 26 -138 32
-27 15 -12 30 19 18 14 -5 70 -16 124 -23z m-11 -108 c0 -5 -4 -16 -9 -26 -5
-9 -12 -25 -15 -36 -5 -15 -9 -16 -21 -6 -12 10 -13 16 -3 27 11 13 19 53 12
53 -2 0 -12 -17 -23 -37 -11 -21 -20 -32 -21 -25 0 7 5 22 11 33 6 11 9 25 6
32 -6 20 -37 -56 -31 -77 4 -17 0 -15 -20 9 -30 36 -30 35 -12 70 8 15 12 34
9 42 -4 10 15 4 56 -18 33 -18 61 -37 61 -41z m385 15 c15 2 20 -4 20 -22 0
-15 9 -28 23 -34 33 -15 27 -27 -7 -14 -16 6 -35 21 -42 34 -7 12 -16 20 -22
16 -5 -3 -4 -9 3 -13 7 -4 10 -14 8 -21 -3 -8 5 -22 16 -32 20 -18 20 -18 1
-12 -11 4 -30 10 -42 12 -16 4 -23 13 -23 29 0 16 -6 24 -17 24 -14 0 -15 2
-4 9 9 6 10 11 2 15 -24 15 -9 23 27 16 20 -5 46 -8 57 -7z m-311 -70 c1 -32
-2 -38 -21 -41 -28 -4 -31 18 -3 25 18 5 18 7 5 33 -8 15 -11 30 -8 34 13 12
26 -13 27 -51z m60 23 c28 -25 33 -48 14 -63 -23 -19 -48 -11 -48 14 0 13 5
23 12 23 9 0 9 3 0 12 -12 12 -17 38 -8 38 3 0 16 -11 30 -24z m84 2 c16 -21
20 -78 5 -78 -7 0 -13 9 -13 20 0 11 -6 20 -14 20 -22 0 -30 19 -16 35 15 18
25 19 38 3z m77 -33 c0 -25 -4 -30 -25 -30 -28 0 -39 27 -19 51 20 24 44 13
44 -21z"/>
<path d="M650 2800 c0 -5 7 -10 16 -10 8 0 12 5 9 10 -3 6 -10 10 -16 10 -5 0
-9 -4 -9 -10z"/>
<path d="M679 2753 c-13 -17 -13 -17 6 -3 11 8 22 16 24 17 2 2 0 3 -6 3 -6 0
-17 -8 -24 -17z"/>
<path d="M913 2753 c-15 -5 -18 -43 -4 -43 5 0 11 11 13 25 3 14 5 25 4 24 0
0 -7 -3 -13 -6z"/>
<path d="M917 2587 c-3 -8 -23 -17 -44 -20 -22 -4 -48 -16 -58 -27 -17 -18
-17 -21 -1 -45 9 -14 29 -31 44 -37 15 -7 34 -18 42 -24 13 -11 27 -8 78 17
35 16 66 37 69 46 8 20 -36 60 -75 69 -15 4 -32 13 -38 20 -10 12 -12 12 -17
1z m111 -80 c5 -23 -105 -72 -125 -56 -7 7 -28 19 -46 28 -50 25 -43 52 18 72
47 16 51 16 100 -5 27 -12 51 -30 53 -39z"/>
<path d="M900 2343 c-1 -128 -18 -323 -28 -323 -23 1 -34 20 -29 49 11 54 -17
65 -203 73 l-55 3 -3 -67 c-2 -38 -2 -68 0 -69 2 0 54 -6 116 -14 67 -8 129
-22 153 -33 36 -18 42 -18 82 -5 32 12 67 14 148 9 80 -5 109 -3 116 6 6 7 14
39 17 70 l7 57 -43 5 c-100 12 -194 15 -207 7 -8 -5 -17 -26 -20 -47 -4 -27
-12 -40 -25 -42 -17 -4 -18 3 -11 110 4 62 11 132 16 156 5 24 7 48 4 53 -7
11 -35 12 -35 2z m-146 -229 l46 -7 0 -54 0 -54 -32 5 c-18 3 -55 8 -83 11
-83 10 -85 11 -85 61 l0 44 54 0 c29 0 74 -3 100 -6z m404 -30 c34 -4 42 -9
38 -21 -3 -8 -6 -27 -6 -43 0 -36 -20 -41 -122 -33 l-78 6 0 38 c0 72 2 73
168 53z"/>
<path d="M1045 1750 c-3 -5 -1 -10 4 -10 6 0 11 5 11 10 0 6 -2 10 -4 10 -3 0
-8 -4 -11 -10z"/>
<path d="M820 1710 c0 -5 5 -10 11 -10 5 0 7 5 4 10 -3 6 -8 10 -11 10 -2 0
-4 -4 -4 -10z"/>
<path d="M900 1740 c0 -5 5 -10 10 -10 6 0 10 5 10 10 0 6 -4 10 -10 10 -5 0
-10 -4 -10 -10z"/>
<path d="M970 1719 c0 -18 2 -19 15 -9 8 7 15 16 15 21 0 5 -7 9 -15 9 -9 0
-15 -9 -15 -21z"/>
<path d="M4590 2544 c-151 -7 -306 -15 -345 -17 -38 -1 127 -4 367 -4 240 -1
442 -4 448 -8 11 -7 13 5 4 29 -7 19 -70 19 -474 0z"/>
<path d="M3993 2513 c9 -2 25 -2 35 0 9 3 1 5 -18 5 -19 0 -27 -2 -17 -5z"/>
<path d="M4088 2513 c12 -2 32 -2 45 0 12 2 2 4 -23 4 -25 0 -35 -2 -22 -4z"/>
<path d="M3560 2319 l0 -24 333 -1 332 -1 -205 18 c-113 9 -262 20 -332 24
l-128 8 0 -24z"/>
<path d="M3546 2184 c-8 -22 -8 -52 2 -57 16 -10 77 -18 63 -9 -9 7 47 9 165
8 l179 -2 -185 38 c-214 43 -216 43 -224 22z"/>
<path d="M55 2108 c12 -39 74 -151 115 -208 49 -67 53 -61 6 10 -19 28 -51 90
-73 136 -21 46 -42 84 -46 84 -5 0 -5 -10 -2 -22z"/>
<path d="M3968 2113 c6 -2 18 -2 25 0 6 3 1 5 -13 5 -14 0 -19 -2 -12 -5z"/>
<path d="M3502 1990 c-10 -39 -9 -41 20 -56 16 -9 32 -13 36 -10 3 3 -1 7 -9
8 -8 1 15 4 51 7 36 4 69 4 75 2 17 -9 45 -8 45 1 0 4 5 8 11 8 5 0 8 -3 6 -7
-3 -5 16 -9 42 -9 25 -1 42 0 36 2 -5 2 -66 21 -135 42 -69 22 -135 42 -146
46 -19 6 -23 1 -32 -34z"/>
<path d="M2355 1968 c-18 -11 -17 -12 15 -24 47 -17 73 -17 96 1 16 13 17 16
4 25 -20 13 -90 12 -115 -2z"/>
<path d="M3441 1842 l-20 -40 53 -35 c30 -20 57 -33 60 -30 16 17 134 17 153
1 8 -6 16 -8 19 -6 4 5 -48 37 -238 145 -4 2 -16 -14 -27 -35z"/>
<path d="M1854 1829 c-17 -19 -17 -23 -3 -47 8 -15 42 -43 74 -63 50 -30 61
-41 63 -67 6 -57 -62 -80 -124 -41 -19 11 -38 18 -44 14 -23 -14 -7 -45 44
-89 150 -128 229 -150 238 -66 3 22 -2 25 -43 31 -25 4 -62 15 -83 26 l-37 19
41 18 c46 20 70 58 70 112 0 38 -17 59 -115 142 -45 38 -55 39 -81 11z"/>
<path d="M2466 1834 c-31 -31 -13 -63 62 -111 31 -20 60 -41 64 -47 23 -34
-16 -86 -65 -86 -16 0 -42 9 -58 21 -16 11 -33 18 -38 15 -5 -4 -12 13 -16 36
-15 92 -75 148 -157 148 -39 0 -54 -6 -84 -32 -46 -40 -64 -82 -64 -148 0 -66
18 -108 64 -148 64 -56 159 -40 211 35 14 21 25 47 25 57 0 17 5 15 38 -15 94
-89 172 -139 217 -139 20 0 29 8 40 32 7 18 11 36 9 39 -2 4 -23 9 -46 11 -24
3 -61 13 -83 22 l-40 18 37 19 c65 34 94 95 72 153 -7 18 -149 136 -163 136
-5 0 -17 -7 -25 -16z m-181 -62 c23 -17 36 -42 45 -93 18 -93 -17 -199 -65
-199 -48 0 -86 116 -66 202 16 71 56 113 86 90z"/>
<path d="M2796 1790 c-51 -33 -76 -86 -76 -160 0 -109 59 -180 150 -180 91 0
150 71 150 180 0 109 -59 180 -150 180 -28 0 -56 -8 -74 -20z m118 -43 c15
-20 21 -47 24 -96 5 -76 -9 -129 -38 -156 -65 -59 -130 112 -85 223 28 67 63
77 99 29z"/>
<path d="M3374 1715 l-18 -34 29 -31 c22 -23 31 -27 42 -18 11 9 16 9 22 0 5
-8 17 -9 38 -3 23 7 37 5 52 -6 12 -8 21 -13 21 -11 0 3 -119 102 -156 130 -7
5 -18 -5 -30 -27z"/>
<path d="M3267 1565 l-28 -34 47 -80 c45 -79 70 -110 40 -52 -14 26 -14 30 0
35 8 3 13 2 10 -3 -3 -5 8 -11 25 -13 16 -3 32 -1 35 4 4 5 18 -1 32 -14 15
-13 22 -16 16 -8 -52 73 -146 200 -147 199 -1 0 -15 -16 -30 -34z"/>
<path d="M1432 1414 c-1 -20 -4 -45 -8 -56 -5 -18 -7 -18 -23 -4 -13 12 -20
13 -29 4 -17 -17 -15 -68 3 -74 10 -4 13 -14 9 -30 -9 -37 7 -29 66 31 52 53
70 65 70 47 0 -5 -27 -39 -60 -78 -52 -61 -75 -105 -52 -104 4 1 26 24 50 53
73 89 93 110 98 104 3 -3 -5 -19 -17 -36 -17 -23 -20 -34 -12 -42 8 -8 16 -4
28 15 17 26 35 27 35 1 0 -23 -30 -45 -61 -45 -17 0 -39 -5 -49 -10 -21 -11
-36 -70 -25 -97 6 -14 10 -9 17 22 10 45 21 55 66 55 44 0 76 33 68 71 l-5 29
42 -26 c23 -14 52 -32 64 -40 13 -8 20 -20 17 -29 -8 -20 -24 -19 -24 2 0 15
-1 15 -18 0 -17 -15 -18 -15 -19 4 -1 12 -5 24 -8 27 -7 8 -65 -59 -65 -75 0
-23 19 -23 35 -1 l17 23 -6 -28 c-10 -41 3 -54 25 -26 24 31 26 4 3 -30 -12
-16 -13 -26 -5 -34 13 -13 8 -18 56 66 36 61 55 82 55 58 0 -5 -18 -46 -40
-92 -36 -76 -41 -99 -21 -99 5 0 27 42 51 94 30 66 46 93 56 89 8 -3 14 0 14
6 0 5 -32 26 -72 46 -80 41 -170 98 -189 122 -11 13 -10 18 10 34 42 34 91 14
91 -37 0 -13 5 -24 11 -24 15 0 4 56 -16 87 -22 34 -77 32 -105 -4 l-21 -27
-47 47 c-26 26 -50 47 -53 47 -3 0 -6 -16 -7 -36z m41 -32 c16 -17 15 -20 -19
-53 -32 -31 -35 -32 -25 -9 5 14 12 37 15 53 7 32 8 32 29 9z m-73 -56 c0 -3
-4 -8 -10 -11 -5 -3 -10 -1 -10 4 0 6 5 11 10 11 6 0 10 -2 10 -4z"/>
<path d="M3108 1409 c-34 -28 -36 -32 -26 -57 14 -31 33 -56 22 -29 -6 15 -3
18 17 16 13 -2 30 0 37 4 7 5 12 3 12 -3 0 -7 6 -10 14 -7 7 3 19 0 26 -6 15
-14 -24 58 -48 90 l-17 22 -37 -30z"/>
<path d="M2900 1300 c-37 -29 -73 -50 -87 -50 -19 0 -23 -4 -18 -19 4 -15 0
-20 -17 -23 -24 -3 -35 -35 -24 -64 4 -12 10 -12 26 -4 18 10 20 8 20 -19 0
-36 13 -47 30 -26 17 20 -2 65 -30 72 -25 7 -27 26 -3 21 15 -3 83 -92 83
-108 0 -3 -18 -13 -40 -22 -22 -9 -40 -21 -40 -27 0 -16 21 -13 41 5 10 9 36
18 58 21 23 3 41 8 41 10 0 7 -43 67 -56 78 -19 17 -48 74 -41 81 8 9 3 15 61
-73 52 -79 71 -99 80 -85 3 5 -19 45 -49 90 -30 45 -55 84 -55 88 0 6 59 -5
74 -14 5 -2 1 -9 -8 -14 -12 -7 -14 -13 -6 -29 13 -24 65 -26 78 -3 6 11 11
13 16 5 8 -13 36 -15 36 -2 0 5 -22 37 -49 72 -27 34 -47 69 -44 76 10 24 -14
13 -77 -37z m80 -32 c37 -41 39 -56 4 -29 -15 12 -34 21 -44 21 -24 0 -32 11
-19 27 17 19 26 16 59 -19z m5 -68 c3 -5 1 -10 -4 -10 -6 0 -11 5 -11 10 0 6
2 10 4 10 3 0 8 -4 11 -10z"/>
<path d="M2590 1235 c0 -2 18 -14 40 -25 22 -11 40 -27 40 -34 0 -8 -34 -24
-87 -41 -88 -28 -122 -45 -91 -45 11 0 22 -17 32 -54 9 -30 16 -58 16 -64 0
-5 7 -15 15 -22 19 -16 43 2 62 48 17 40 6 64 -37 82 -35 14 -34 17 7 29 30 9
31 9 57 -59 15 -38 33 -71 41 -74 8 -2 25 4 39 15 20 16 26 17 26 6 0 -22 -27
-40 -50 -34 -11 3 -22 1 -25 -3 -3 -5 9 -11 25 -15 58 -13 103 41 65 79 -8 8
-15 28 -15 44 0 33 -13 47 -53 57 -29 8 -34 -4 -21 -52 9 -33 38 -30 32 2 -3
14 -1 25 3 25 10 0 12 -51 3 -74 -3 -9 -10 -16 -14 -16 -8 0 -50 96 -50 115 0
6 18 18 40 25 43 14 50 24 23 34 -10 3 -36 17 -58 31 -37 23 -65 32 -65 20z
m-15 -175 c12 -13 15 -27 11 -46 -9 -33 -21 -22 -34 29 -12 41 -4 47 23 17z"/>
<path d="M1870 1141 c0 -7 13 -17 30 -22 l29 -11 -39 -37 c-23 -22 -40 -47
-40 -60 0 -22 49 -81 68 -81 5 0 18 30 27 68 18 68 44 116 31 57 -11 -52 -11
-58 1 -62 21 -7 38 43 25 71 -11 24 -10 24 26 19 20 -3 38 -7 40 -8 1 -1 -10
-29 -25 -61 -49 -105 -36 -206 33 -250 20 -14 30 -15 50 -5 45 20 16 95 -31
77 -14 -5 -15 -9 -5 -21 7 -8 17 -12 22 -8 6 3 9 0 6 -8 -9 -28 -46 -22 -62
10 -31 59 -11 166 42 230 25 30 30 32 70 25 34 -5 42 -11 42 -27 0 -16 -3 -18
-12 -9 -17 17 -28 15 -28 -5 -1 -17 -1 -17 -11 0 -18 31 -37 20 -44 -27 -7
-46 -1 -71 16 -61 5 4 9 16 9 28 0 25 16 12 22 -18 4 -26 21 -22 30 7 5 18 6
15 7 -14 1 -33 15 -57 27 -45 2 2 7 41 11 86 6 77 7 81 30 81 21 0 23 -3 17
-38 -5 -30 -2 -41 15 -56 11 -10 27 -16 36 -12 11 4 15 2 13 -6 -3 -7 -24 -15
-49 -18 l-43 -5 28 -13 c30 -14 61 -8 88 15 14 13 17 12 23 -6 3 -12 15 -26
26 -31 21 -12 26 -1 7 18 -8 8 -12 37 -11 77 l2 65 -35 0 c-19 0 -34 5 -34 10
0 6 20 10 45 10 27 0 45 5 45 12 0 8 -27 9 -97 5 -151 -10 -343 15 -455 58
-11 4 -18 2 -18 -4z m47 -137 c-16 -45 -31 -51 -35 -12 -2 17 5 35 19 49 28
28 34 15 16 -37z m442 30 c17 -8 29 -20 25 -25 -3 -6 -12 -5 -21 3 -12 10 -18
8 -34 -12 -19 -26 -24 -16 -13 28 7 26 4 26 43 6z"/>
</g>
</svg>
